<svg width="21" height="21" viewBox="0 0 21 21" fill="none" xmlns="http://www.w3.org/2000/svg">
<path d="M12.4333 16.3917C12.4333 16.9 12.0999 17.5667 11.6749 17.825L10.5 18.5834C9.4083 19.2584 7.89163 18.5 7.89163 17.15V12.6917C7.89163 12.1 7.5583 11.3417 7.21663 10.925L4.01661 7.55837C3.59161 7.13337 3.2583 6.38338 3.2583 5.87505V3.94171C3.2583 2.93338 4.01665 2.17505 4.94165 2.17505H16.0583C16.9833 2.17505 17.7416 2.93337 17.7416 3.85837V5.70837C17.7416 6.38337 17.3166 7.22505 16.9 7.64171" stroke="#292D32" stroke-width="1.5" stroke-miterlimit="10" stroke-linecap="round" stroke-linejoin="round"/>
<path d="M13.8917 14.2667C15.3644 14.2667 16.5583 13.0728 16.5583 11.6C16.5583 10.1273 15.3644 8.93335 13.8917 8.93335C12.4189 8.93335 11.225 10.1273 11.225 11.6C11.225 13.0728 12.4189 14.2667 13.8917 14.2667Z" stroke="#292D32" stroke-width="1.5" stroke-linecap="round" stroke-linejoin="round"/>
<path d="M17.0583 14.7667L16.225 13.9333" stroke="#292D32" stroke-width="1.5" stroke-linecap="round" stroke-linejoin="round"/>
</svg>
